# xmcd
#
# Track frame offsets:
#	150
#	25238
#	44389
#	68095
#	95397
#	116421
#	138072
#	163322
#	190716
#	212886
#
# Disc length: 3133 seconds
#
# Revision: 0
# Processed by: cddbd v1.5.2PL0 Copyright (c) Steve Scherf et al.
# Submitted via: EZCDAudioConverter 8.0.2.1
#
DISCID=850c3b0a
DTITLE=Dạ Nhật Yến - The Rain
DYEAR=2000
DGENRE=
TTITLE0=Yêu thầm
TTITLE1=The Rain (Chia tay trong mưa)
TTITLE2=Áo lụa vàng
TTITLE3=Triệu đóa hồng
TTITLE4=Cùng với biển xanh
TTITLE5=Trái tim không ngủ yên
TTITLE6=Only You
TTITLE7=Thôi anh hãy về
TTITLE8=Tình buồn chiều mưa
TTITLE9=Tình thôi xót xa
EXTD=
EXTT0=
EXTT1=
EXTT2=
EXTT3=
EXTT4=
EXTT5=
EXTT6=
EXTT7=
EXTT8=
EXTT9=
PLAYORDER=
